<?xml version="1.0" encoding="UTF-8"?>
<svg width="1031px" height="278px" viewBox="0 0 1031 278" version="1.1" xmlns="http://www.w3.org/2000/svg" xmlns:xlink="http://www.w3.org/1999/xlink">
    <title>Github_logo</title>
    <g id="Github_logo" stroke="none" stroke-width="1" fill="none" fill-rule="evenodd">
        <rect fill="#FFFFFF" x="0" y="0" width="1031" height="278"></rect>
        <g id="编组" transform="translate(305.869097, 105.398902)" fill="#3C82F6">
            <polygon id="Fill-1" points="352.279051 29.3181803 318.34315 29.3181803 318.34315 15.755609 342.197675 15.755609 342.197675 1.19369022 297.186458 1.19369022 297.186458 66.008505 318.34315 66.008505 318.34315 41.8814044 352.279051 41.8814044"></polygon>
            <polygon id="Fill-2" points="289.408681 15.755609 289.408681 1.19369022 222.649421 1.19369022 222.649421 15.755609 245.518019 15.755609 245.518019 66.008505 266.682124 66.008505 266.682124 15.755609"></polygon>
            <g>
                <path d="M154.593472,46.896237 L154.593472,3.13283632 L134.897304,3.13283632 L134.897304,38.2568602 C134.897304,43.2138797 133.622012,46.7546079 131.071429,48.8790448 C128.520846,51.1451108 124.553273,52.1365147 118.88531,52.1365147 C113.075649,52.1365147 108.966377,51.1451108 106.274094,49.0206739 C103.723511,46.896237 102.44822,43.4971379 102.44822,38.6817475 L102.44822,3.13283632 L82.7520513,3.13283632 L82.7520513,46.0464622 C82.7520513,53.9776934 85.7277315,59.2179712 91.5373927,62.1921829 C97.347054,65.1663946 106.274094,66.724315 118.601912,66.724315 C130.504633,66.724315 139.431673,65.1663946 145.383034,62.1921829 C151.476093,59.2179712 154.593472,54.1193225 154.593472,46.896237" id="Fill-3"></path>
                <path d="M36.133259,31.4592521 L34.8579675,31.4592521 L20.546363,31.4592521 L20.546363,13.3307237 L36.133259,13.3307237 L36.133259,1.29224777 L0,1.29224777 L0,65.5918721 L21.1131592,65.5918721 L21.1131592,41.6565494 L33.1575789,41.6565494 L36.133259,41.6565494 L36.133259,31.4592521 Z M51.8618541,22.1117296 C51.8618541,25.5108287 50.4448636,27.9185239 47.4691834,29.3348152 C44.9186004,30.6094773 41.092726,31.317623 36.133259,31.4592521 L36.133259,41.6565494 C38.9672401,41.7981785 41.3761241,42.364695 43.2182118,44.9140193 L55.4043305,65.5918721 L79.4931699,65.5918721 L67.5904492,45.9054232 C63.9062738,39.6737416 60.3637974,38.2574503 53.5622428,36.841159 C63.6228757,35.5664968 72.4082171,30.6094773 72.4082171,19.4207762 C72.4082171,14.4637567 70.1410322,8.79859158 65.6066625,5.68275075 C61.2139918,2.70853906 55.1209324,1.29224777 47.7525815,1.29224777 L36.133259,1.29224777 L36.133259,13.3307237 L38.2587449,13.3307237 C42.6514156,13.3307237 46.0521929,14.0388693 48.4610768,15.4551606 C50.7282617,16.8714519 51.8618541,18.9958888 51.8618541,22.1117296 L51.8618541,22.1117296 Z" id="Fill-5"></path>
                <path d="M222.609019,46.1882881 C222.609019,41.3728977 220.766931,37.265653 217.082755,34.008183 C213.540279,30.8923422 206.880424,28.484647 197.103189,26.7850975 C194.127509,26.218581 191.435227,25.7936936 189.309741,25.2271771 C174.856437,21.9697071 176.840224,13.7552177 191.151828,13.7552177 C198.803577,13.7552177 206.171928,16.1629128 213.540279,17.437575 C214.532172,17.5792041 214.95727,17.7208333 215.098969,17.7208333 L216.657658,3.55792041 C209.005909,1.15022523 199.93717,0.300450459 192.002023,0.300450459 C182.508186,0.300450459 175.139835,2 169.89697,5.25746995 C164.654105,8.51493991 161.961823,15.0298798 161.961823,21.4031906 C161.961823,26.7850975 163.94561,30.8923422 168.054882,34.008183 C172.022456,36.9823947 179.390807,39.3900899 189.876537,41.2312686 C193.135615,41.7977851 195.827897,42.2226725 197.811684,42.789189 C199.93717,43.3557055 201.495859,43.922222 202.487753,44.4887385 C204.329841,45.4801424 205.321734,46.8964337 205.321734,48.4543541 C205.321734,50.578791 204.188141,52.1367115 201.779258,53.2697445 C194.836004,56.5272144 175.139835,54.5444066 167.204688,51.0036784 L163.94561,63.6086708 C164.795804,63.7503 166.212795,64.0335582 168.054882,64.3168165 C182.508186,66.5828825 201.35416,69.5570942 214.248774,61.3426048 C219.775038,57.9435057 222.609019,52.9864862 222.609019,46.1882881" id="Fill-7"></path>
                <path d="M419.056829,46.0294667 C419.056829,41.0724472 417.214741,36.9652025 413.530566,33.8493617 C409.988089,30.7335209 403.328234,28.3258257 393.550999,26.6262761 C390.575319,26.0597596 388.024736,25.4932431 385.757551,25.0683557 C385.615852,25.0683557 385.474153,25.0683557 385.474153,24.9267266 L385.474153,28.7507131 L370.454053,19.2615615 L385.474153,9.77240986 L385.474153,13.5963963 L387.599639,13.5963963 C395.251388,13.5963963 402.619738,16.0040915 409.988089,17.2787537 C410.979983,17.4203828 411.40508,17.4203828 411.546779,17.4203828 L413.105468,3.25746995 C405.45372,0.991403899 396.38498,0 388.449833,0 C378.955996,0 371.587645,1.69954954 366.486479,4.95701949 C361.101915,8.35611858 358.409633,14.8710585 358.409633,21.2443693 C358.409633,26.6262761 360.39342,30.7335209 364.502693,33.7077326 C368.611965,36.8235734 375.838617,39.2312686 386.324347,41.0724472 C388.449833,41.3557055 390.291921,41.6389637 391.85061,42.0638511 L391.992309,38.6647521 L406.587312,48.7204202 L391.283814,57.6430553 L391.425513,54.5272144 C382.498473,55.2353601 369.603859,53.5358105 363.652498,50.703228 L360.39342,63.4498495 C361.243614,63.5914786 362.660605,63.7331078 364.502693,64.1579952 C378.955996,66.4240612 397.801971,69.3982729 410.696585,61.1837835 C416.364547,57.7846844 419.056829,52.6860358 419.056829,46.0294667" id="Fill-9"></path>
            </g>
        </g>
    </g>
</svg>