<?xml version="1.0" encoding="UTF-8"?>
<svg width="1031px" height="278px" viewBox="0 0 1031 278" version="1.1" xmlns="http://www.w3.org/2000/svg" xmlns:xlink="http://www.w3.org/1999/xlink">
    <title>矩形</title>
    <defs>
        <rect id="path-1" x="0" y="0" width="1031" height="278"></rect>
        <linearGradient x1="50%" y1="100%" x2="50%" y2="6.16297582e-31%" id="linearGradient-3">
            <stop stop-color="#090C2C" offset="0%"></stop>
            <stop stop-color="#151C57" offset="100%"></stop>
        </linearGradient>
        <filter x="0.0%" y="0.0%" width="100.0%" height="100.0%" filterUnits="objectBoundingBox" id="filter-4">
            <feGaussianBlur stdDeviation="0" in="SourceGraphic"></feGaussianBlur>
        </filter>
        <linearGradient x1="50%" y1="0%" x2="50%" y2="100%" id="linearGradient-5">
            <stop stop-color="#151C57" offset="0%"></stop>
            <stop stop-color="#090C2C" offset="100%"></stop>
        </linearGradient>
    </defs>
    <g id="页面-2" stroke="none" stroke-width="1" fill="none" fill-rule="evenodd">
        <g id="画板" transform="translate(-34, -82)">
            <g id="矩形" transform="translate(34, 82)">
                <mask id="mask-2" fill="white">
                    <use xlink:href="#path-1"></use>
                </mask>
                <use id="蒙版" fill="#090C2C" xlink:href="#path-1"></use>
                <rect fill="url(#linearGradient-3)" filter="url(#filter-4)" mask="url(#mask-2)" transform="translate(138.5, -60) rotate(-315) translate(-138.5, 60)" x="-15" y="-367" width="307" height="614"></rect>
                <rect id="矩形备份-6" fill="url(#linearGradient-5)" mask="url(#mask-2)" transform="translate(933.5, 0) rotate(-315) translate(-933.5, -0)" x="827" y="-213" width="213" height="426"></rect>
                <rect id="矩形备份-7" fill="url(#linearGradient-5)" mask="url(#mask-2)" transform="translate(980.5, 246) rotate(-315) translate(-980.5, -246)" x="874" y="33" width="213" height="426"></rect>
                <path d="M700.244508,146.345078 L679.104894,146.345078 C673.652879,146.345078 669.21746,141.712588 669.21746,136.018335 L669.21746,134.672949 C669.21746,128.978695 673.652879,124.346205 679.104894,124.346205 L720.708712,124.346205 C726.390506,124.346205 731,119.539179 731,113.597665 C731,107.663423 726.390506,102.849124 720.708712,102.849124 L679.104894,102.849124 C662.303219,102.849124 648.627922,117.124757 648.627922,134.672949 L648.627922,136.018335 C648.627922,153.566527 662.303219,167.849432 679.104894,167.849432 L700.244508,167.849432 C705.696523,167.849432 710.131943,172.481922 710.131943,178.176175 C710.131943,183.863157 705.696523,188.495647 700.244508,188.495647 L619.752435,188.495647 L619.752435,124.346205 L630.614687,124.346205 C636.303443,124.346205 640.912938,119.539179 640.912938,113.597665 C640.912938,107.663423 636.303443,102.849124 630.614687,102.849124 L619.752435,102.849124 L619.752435,100.849227 C619.752435,94.5950015 624.626522,89.5043532 630.614687,89.5043532 C636.303443,89.5043532 640.912938,84.6900543 640.912938,78.7485404 C640.912938,72.8142989 636.303443,68 630.614687,68 C613.276862,68 599.16986,82.7337908 599.16986,100.849227 L599.16986,102.849124 L564.689173,102.849124 L564.689173,78.7485404 C564.689173,72.8142989 560.079678,68 554.390922,68 C548.709129,68 544.099635,72.8142989 544.099635,78.7485404 L544.099635,102.849124 L477.993082,102.849124 C461.191407,102.849124 447.523073,117.124757 447.523073,134.672949 L447.523073,136.018335 C447.523073,153.566527 461.191407,167.849432 477.993082,167.849432 L499.132696,167.849432 C504.584711,167.849432 509.020131,172.481922 509.020131,178.176175 C509.020131,183.863157 504.584711,188.495647 499.132696,188.495647 L454.005609,188.495647 C441.952687,188.495647 432.155771,178.256171 432.155771,165.674997 L432.155771,113.597665 C432.155771,107.663423 427.546277,102.849124 421.864484,102.849124 C421.80878,102.849124 421.767002,102.863669 421.718261,102.863669 C421.662557,102.863669 421.620779,102.849124 421.572039,102.849124 C415.883282,102.849124 411.273788,107.663423 411.273788,113.597665 L411.273788,172.736454 C411.273788,181.426918 404.505769,188.495647 396.185006,188.495647 C387.864242,188.495647 381.096224,181.426918 381.096224,172.736454 L381.096224,113.597665 C381.096224,107.663423 376.486729,102.849124 370.797973,102.849124 C351.078808,102.849124 333.211796,111.277783 320.323316,124.869815 L320.323316,113.801291 C320.323316,107.867049 315.713822,103.05275 310.032028,103.05275 C304.350235,103.05275 299.740741,107.867049 299.740741,113.801291 L299.740741,199.25146 C299.740741,205.185701 304.350235,210 310.032028,210 C315.713822,210 320.323316,205.185701 320.323316,199.25146 L320.323316,177.063505 C320.323316,151.675714 337.598474,130.425894 360.506686,125.451603 L360.506686,172.736454 C360.506686,193.280856 376.507618,210 396.185006,210 C407.19348,210 417.053063,204.756632 423.605229,196.538871 C431.320213,204.829356 442.091947,210 454.005609,210 L499.132696,210 C515.934372,210 529.609669,195.724368 529.609669,178.176175 C529.609669,160.620711 515.934372,146.345078 499.132696,146.345078 L477.993082,146.345078 C472.541067,146.345078 468.105648,141.712588 468.105648,136.018335 L468.105648,134.672949 C468.105648,128.978695 472.541067,124.346205 477.993082,124.346205 L544.099635,124.346205 L544.099635,177.158046 C544.099635,195.266209 558.206636,210 575.551425,210 C581.233218,210 585.842712,205.185701 585.842712,199.25146 C585.842712,193.309946 581.233218,188.495647 575.551425,188.495647 C569.556297,188.495647 564.689173,183.412271 564.689173,177.158046 L564.689173,124.346205 L599.16986,124.346205 L599.16986,199.25146 C599.16986,205.185701 603.779354,210 609.461147,210 L700.244508,210 C717.046184,210 730.721481,195.724368 730.721481,178.176175 C730.721481,160.620711 717.046184,146.345078 700.244508,146.345078" id="logo" fill="#E8037D"></path>
            </g>
        </g>
    </g>
</svg>